<svg width="224" height="210" viewBox="0 0 224 210" fill="none" xmlns="http://www.w3.org/2000/svg">
<rect width="224" height="210" rx="66" fill="#2B3745"/>
<g filter="url(#filter0_d_17_9)">
<path opacity="0.4" d="M86.4516 141.654C90.3416 141.654 93.5286 144.841 93.5286 148.778C93.5286 152.668 90.3416 155.855 86.4516 155.855C82.5147 155.855 79.3277 152.668 79.3277 148.778C79.3277 144.841 82.5147 141.654 86.4516 141.654ZM139.178 141.654C143.068 141.654 146.255 144.841 146.255 148.778C146.255 152.668 143.068 155.855 139.178 155.855C135.241 155.855 132.054 152.668 132.054 148.778C132.054 144.841 135.241 141.654 139.178 141.654Z" fill="#2997FD"/>
<path d="M64.6502 64.0004L65.1278 64.039L76.3058 65.7263C77.8993 66.0122 79.071 67.3198 79.2116 68.9133L80.1021 79.4117C80.2427 80.9161 81.4612 82.0409 82.961 82.0409H146.256C149.115 82.0409 150.99 83.0252 152.864 85.1811C154.739 87.337 155.067 90.4303 154.645 93.2376L150.193 123.983C149.349 129.893 144.287 134.247 138.335 134.247H87.2025C80.9691 134.247 75.8137 129.466 75.2981 123.285L70.9863 72.194L63.9093 70.9755C62.0346 70.6474 60.7223 68.8196 61.0503 66.9448C61.3784 65.0233 63.2063 63.7578 65.1278 64.039L64.6502 64.0004ZM130.836 99.3773H117.854C115.886 99.3773 114.339 100.924 114.339 102.892C114.339 104.814 115.886 106.407 117.854 106.407H130.836C132.805 106.407 134.351 104.814 134.351 102.892C134.351 100.924 132.805 99.3773 130.836 99.3773Z" fill="#2997FD"/>
</g>
<defs>
<filter id="filter0_d_17_9" x="25" y="28" width="173.808" height="171.855" filterUnits="userSpaceOnUse" color-interpolation-filters="sRGB">
<feFlood flood-opacity="0" result="BackgroundImageFix"/>
<feColorMatrix in="SourceAlpha" type="matrix" values="0 0 0 0 0 0 0 0 0 0 0 0 0 0 0 0 0 0 127 0" result="hardAlpha"/>
<feOffset dx="4" dy="4"/>
<feGaussianBlur stdDeviation="20"/>
<feComposite in2="hardAlpha" operator="out"/>
<feColorMatrix type="matrix" values="0 0 0 0 0.192866 0 0 0 0 0.486728 0 0 0 0 0.757986 0 0 0 1 0"/>
<feBlend mode="normal" in2="BackgroundImageFix" result="effect1_dropShadow_17_9"/>
<feBlend mode="normal" in="SourceGraphic" in2="effect1_dropShadow_17_9" result="shape"/>
</filter>
</defs>
</svg>
