<svg width="224" height="210" viewBox="0 0 224 210" fill="none" xmlns="http://www.w3.org/2000/svg">
<rect width="224" height="210" rx="66" fill="#2B2821"/>
<g filter="url(#filter0_d_17_10)">
<path opacity="0.4" d="M142.194 131.268H120.683C118.584 131.268 116.877 133.002 116.877 135.134C116.877 137.27 118.584 139 120.683 139H142.194C144.293 139 146 137.27 146 135.134C146 133.002 144.293 131.268 142.194 131.268Z" fill="#FDC229"/>
<path d="M105.612 85.748L125.996 102.219C126.488 102.613 126.572 103.336 126.188 103.84L102.022 135.329C100.503 137.274 98.2641 138.375 95.8654 138.415L82.673 138.578C81.9694 138.586 81.3537 138.098 81.1938 137.4L78.1955 124.364C77.6758 121.968 78.1955 119.491 79.7147 117.582L104.001 85.9429C104.393 85.4353 105.116 85.346 105.612 85.748Z" fill="#FDC229"/>
<path opacity="0.4" d="M135.122 92.4028L131.193 97.3085C130.797 97.808 130.085 97.8892 129.593 97.4912C124.816 93.6251 112.583 83.7041 109.189 80.9548C108.693 80.5487 108.625 79.8258 109.025 79.3223L112.815 74.6155C116.253 70.189 122.25 69.7829 127.087 73.6409L132.644 78.0674C134.922 79.8543 136.442 82.2096 136.961 84.6869C137.561 87.4118 136.921 90.088 135.122 92.4028Z" fill="#FDC229"/>
</g>
<defs>
<filter id="filter0_d_17_10" x="42" y="35" width="148" height="148" filterUnits="userSpaceOnUse" color-interpolation-filters="sRGB">
<feFlood flood-opacity="0" result="BackgroundImageFix"/>
<feColorMatrix in="SourceAlpha" type="matrix" values="0 0 0 0 0 0 0 0 0 0 0 0 0 0 0 0 0 0 127 0" result="hardAlpha"/>
<feOffset dx="4" dy="4"/>
<feGaussianBlur stdDeviation="20"/>
<feComposite in2="hardAlpha" operator="out"/>
<feColorMatrix type="matrix" values="0 0 0 0 0.99132 0 0 0 0 0.758932 0 0 0 0 0.161365 0 0 0 1 0"/>
<feBlend mode="normal" in2="BackgroundImageFix" result="effect1_dropShadow_17_10"/>
<feBlend mode="normal" in="SourceGraphic" in2="effect1_dropShadow_17_10" result="shape"/>
</filter>
</defs>
</svg>
