<svg width="569" height="380" viewBox="0 0 569 380" fill="none" xmlns="http://www.w3.org/2000/svg">
<path d="M455.2 380H569V253.336H455.2V380Z" fill="#540D6D"/>
<path d="M341.401 380H455.2V253.336H341.401V380Z" fill="#540D6D"/>
<path d="M227.601 380H341.4V253.336H227.601V380Z" fill="#9053A6"/>
<path d="M0.00120544 380H113.801L113.801 253.336H0.00120544L0.00120544 380Z" fill="#540D6D"/>
<path d="M113.801 380H227.601L227.601 253.336H113.801L113.801 380Z" fill="#540D6D"/>
<path d="M455.2 253.333H569V126.669L455.2 126.669V253.333Z" fill="#814BA2"/>
<path d="M341.401 253.333H455.2V126.669L341.401 126.669V253.333Z" fill="#540D6D"/>
<path d="M227.601 253.333H341.401V126.669L227.601 126.669V253.333Z" fill="#540D6D"/>
<path d="M0.00128937 253.333H113.801L113.801 126.669L0.00128937 126.669L0.00128937 253.333Z" fill="#540D6D"/>
<path d="M113.801 253.333H227.601L227.601 126.669L113.801 126.669L113.801 253.333Z" fill="#9053A6"/>
<path d="M455.2 126.665L569 126.665V0.0018158L455.2 0.0018158V126.665Z" fill="#540D6D"/>
<path d="M341.401 126.665L455.2 126.665V0.0018158L341.401 0.0018158V126.665Z" fill="#C86EF2"/>
<path d="M227.601 126.665L341.4 126.665V0.0018158L227.601 0.0018158V126.665Z" fill="#540D6D"/>
<path d="M0.00120544 126.665L113.801 126.665L113.801 0.0018158L0.00120544 0.0018158L0.00120544 126.665Z" fill="#540D6D"/>
<path d="M113.801 126.665L227.601 126.665L227.601 0.0018158L113.801 0.0018158L113.801 126.665Z" fill="#C86EF2"/>
<path d="M512.099 379.998V316.667H455.199C455.199 351.642 480.675 379.998 512.099 379.998Z" fill="#9053A6"/>
<path d="M568.999 317.214L567.603 316.667C567.603 351.642 542.749 379.998 512.099 379.998H568.999V317.214Z" fill="#814BA2"/>
<path d="M568.999 316.667H512.099V379.998C543.523 379.998 568.999 351.642 568.999 316.667Z" fill="#540D6D"/>
<path d="M512.099 63.3318V0H455.199C455.199 34.9757 480.675 63.3318 512.099 63.3318Z" fill="#9053A6"/>
<path d="M568.999 0H512.099V63.3318C543.523 63.3318 568.999 34.9757 568.999 0Z" fill="#814BA2"/>
<path d="M512.099 253.327V189.995H455.199C455.199 224.979 480.675 253.327 512.099 253.327Z" fill="#9053A6"/>
<path d="M568.999 189.995H512.099V253.327C543.523 253.327 568.999 224.979 568.999 189.995Z" fill="#C86EF2"/>
<path d="M398.299 379.998V316.667H341.399C341.399 351.642 366.875 379.998 398.299 379.998Z" fill="#814BA2"/>
<path d="M455.199 317.214L453.803 316.667C453.803 351.642 428.949 379.998 398.299 379.998H455.199V317.214Z" fill="#9053A6"/>
<path d="M455.199 316.667H398.299V379.998C429.723 379.998 455.199 351.642 455.199 316.667Z" fill="#540D6D"/>
<path d="M56.8999 379.998V316.667H0C0 351.642 25.476 379.998 56.8999 379.998Z" fill="#814BA2"/>
<path d="M113.8 316.667H56.8999V379.998C88.3238 379.998 113.8 351.642 113.8 316.667Z" fill="#9053A6"/>
<path d="M512.797 253.327C481.76 253.327 456.595 281.683 456.595 316.659H568.999C568.999 281.683 543.834 253.327 512.797 253.327Z" fill="#C86EF2"/>
<path d="M512.099 253.327H455.199L472.193 284.997L512.099 253.327Z" fill="#C86EF2"/>
<path d="M512.099 316.667C512.099 316.667 513.146 253.335 455.199 253.335V316.667H512.099Z" fill="#814BA2"/>
<path d="M512.797 63.3318C481.76 63.3318 456.595 91.6878 456.595 126.664H568.999C568.999 91.6878 543.834 63.3318 512.797 63.3318Z" fill="#C86EF2"/>
<path d="M512.099 63.3318H455.199L472.193 95.0015L512.099 63.3318Z" fill="#C86EF2"/>
<path d="M512.099 126.664C512.099 126.664 513.146 63.3318 455.199 63.3318V126.664H512.099Z" fill="#9053A6"/>
<path d="M398.299 316.667C398.299 316.667 399.346 253.335 341.399 253.335V316.667H398.299Z" fill="#9053A6"/>
<path d="M398.299 316.667C398.299 316.667 397.252 253.335 455.199 253.335V316.667H398.299Z" fill="#C86EF2"/>
<path d="M398.299 126.664V63.3318H341.399C341.399 98.3075 366.875 126.664 398.299 126.664Z" fill="#814BA2"/>
<path d="M455.199 63.879L453.803 63.3318C453.803 98.3075 428.949 126.664 398.299 126.664H455.199V63.879Z" fill="#9053A6"/>
<path d="M455.199 63.3318H398.299V126.664C429.723 126.664 455.199 98.3075 455.199 63.3318Z" fill="#540D6D"/>
<path d="M398.299 63.3318C398.299 63.3318 399.346 0 341.399 0V63.3318H398.299Z" fill="#9053A6"/>
<path d="M398.299 63.3318C398.299 63.3318 397.252 0 455.199 0V63.3318H398.299Z" fill="#C86EF2"/>
<path d="M398.299 126.664V189.995H341.399C341.399 155.02 366.875 126.664 398.299 126.664Z" fill="#814BA2"/>
<path d="M455.199 189.995H398.299V126.664C429.723 126.664 455.199 155.02 455.199 189.995Z" fill="#540D6D"/>
<path d="M512.099 189.995H455.199V126.664C486.623 126.664 512.099 155.02 512.099 189.995Z" fill="#540D6D"/>
<path d="M398.299 189.995C398.299 189.995 399.346 253.327 341.399 253.327V189.995H398.299Z" fill="#9053A6"/>
<path d="M398.299 189.995C398.299 189.995 397.252 253.327 455.199 253.327V189.995H398.299Z" fill="#C86EF2"/>
<path d="M56.8999 189.995V253.327H0C0 218.351 25.476 189.995 56.8999 189.995Z" fill="#814BA2"/>
<path d="M113.8 253.335H56.8999V190.003C88.3238 189.995 113.8 218.351 113.8 253.335Z" fill="#540D6D"/>
<path d="M56.8999 253.335C56.8999 253.335 57.9468 316.667 0 316.667V253.335H56.8999Z" fill="#9053A6"/>
<path d="M56.8999 253.335C56.8999 253.335 55.8529 316.667 113.8 316.667V253.335H56.8999Z" fill="#C86EF2"/>
<path d="M284.499 0V63.3318H227.599C227.599 28.356 253.075 0 284.499 0Z" fill="#9053A6"/>
<path d="M341.399 62.7846L340.003 63.3318C340.003 28.356 315.157 0 284.499 0H341.399V62.7846Z" fill="#814BA2"/>
<path d="M341.399 63.3318H284.499V0C315.923 0 341.399 28.356 341.399 63.3318Z" fill="#540D6D"/>
<path d="M284.499 316.667V379.998H227.599C227.599 345.015 253.075 316.667 284.499 316.667Z" fill="#9053A6"/>
<path d="M341.399 379.998H284.499V316.667C315.923 316.667 341.399 345.015 341.399 379.998Z" fill="#814BA2"/>
<path d="M284.499 126.664V189.995H227.599C227.599 155.02 253.075 126.664 284.499 126.664Z" fill="#9053A6"/>
<path d="M341.399 189.995H284.499V126.664C315.923 126.664 341.399 155.02 341.399 189.995Z" fill="#C86EF2"/>
<path d="M170.7 0V63.3318H113.8C113.8 28.356 139.276 0 170.7 0Z" fill="#814BA2"/>
<path d="M227.6 62.7846L226.204 63.3318C226.204 28.356 201.357 0 170.7 0H227.6V62.7846Z" fill="#9053A6"/>
<path d="M227.6 63.3318H170.7V0C202.124 0 227.6 28.356 227.6 63.3318Z" fill="#540D6D"/>
<path d="M285.197 126.664C254.16 126.664 228.995 98.3075 228.995 63.3318H341.399C341.399 98.3075 316.234 126.664 285.197 126.664Z" fill="#C86EF2"/>
<path d="M284.499 126.664H227.599L244.594 95.0015L284.499 126.664Z" fill="#C86EF2"/>
<path d="M284.499 63.3318C284.499 63.3318 285.546 126.664 227.599 126.664V63.3318H284.499Z" fill="#814BA2"/>
<path d="M285.197 316.667C254.16 316.667 228.995 288.31 228.995 253.335H341.399C341.399 288.31 316.234 316.667 285.197 316.667Z" fill="#C86EF2"/>
<path d="M284.499 316.667H227.599L244.594 284.997L284.499 316.667Z" fill="#C86EF2"/>
<path d="M284.499 253.327C284.499 253.327 285.546 316.659 227.599 316.659V253.327H284.499Z" fill="#9053A6"/>
<path d="M170.7 63.3318C170.7 63.3318 171.747 126.664 113.8 126.664V63.3318H170.7Z" fill="#9053A6"/>
<path d="M170.7 63.3318C170.7 63.3318 169.653 126.664 227.599 126.664V63.3318H170.7Z" fill="#814BA2"/>
<path d="M170.7 253.327V316.659H113.8C113.8 281.683 139.276 253.327 170.7 253.327Z" fill="#814BA2"/>
<path d="M227.6 316.119L226.204 316.667C226.204 281.691 201.35 253.335 170.7 253.335H227.6V316.119Z" fill="#9053A6"/>
<path d="M227.6 316.667H170.7V253.335C202.124 253.327 227.6 281.683 227.6 316.667Z" fill="#540D6D"/>
<path d="M170.7 316.667C170.7 316.667 171.747 379.998 113.8 379.998V316.667H170.7Z" fill="#9053A6"/>
<path d="M170.7 316.667C170.7 316.667 169.653 379.998 227.599 379.998V316.667H170.7Z" fill="#C86EF2"/>
<path d="M56.8999 0V63.3318H0C0 28.356 25.476 0 56.8999 0Z" fill="#9053A6"/>
<path d="M113.8 63.3318H56.8999V0C88.3238 0 113.8 28.356 113.8 63.3318Z" fill="#540D6D"/>
<path d="M170.7 253.327V189.995H113.8C113.8 224.979 139.276 253.327 170.7 253.327Z" fill="#814BA2"/>
<path d="M227.599 189.995H170.7V253.327C202.124 253.327 227.599 224.979 227.599 189.995Z" fill="#540D6D"/>
<path d="M56.8999 126.664V189.995H0C0 155.02 25.476 126.664 56.8999 126.664Z" fill="#814BA2"/>
<path d="M113.8 189.995H56.8999V126.664C88.3238 126.664 113.8 155.02 113.8 189.995Z" fill="#9053A6"/>
<path d="M56.8999 126.664V63.3318H0C0 98.3075 25.476 126.664 56.8999 126.664Z" fill="#C86EF2"/>
<path d="M113.8 63.3318H56.8999V126.664C88.3238 126.664 113.8 98.3075 113.8 63.3318Z" fill="#814BA2"/>
<path d="M284.499 189.995H227.599V253.327C259.023 253.327 284.499 224.979 284.499 189.995Z" fill="#814BA2"/>
<path d="M170.7 189.995C170.7 189.995 171.747 126.664 113.8 126.664V189.995H170.7Z" fill="#540D6D"/>
<path d="M170.7 189.995C170.7 189.995 169.653 126.664 227.599 126.664V189.995H170.7Z" fill="#C86EF2"/>
</svg>
