<svg width="294" height="25" viewBox="0 0 294 25" fill="none" xmlns="http://www.w3.org/2000/svg">
<path fill-rule="evenodd" clip-rule="evenodd" d="M52.0818 1.168C52.0846 0.518884 52.4592 -0.00403661 52.9185 2.34835e-05C72.0349 0.169035 91.1512 0.396257 110.267 0.623476C121.874 0.761435 133.48 0.899393 145.086 1.02432C162.74 0.496214 178.544 0.169025 189.952 0.169025C195.568 0.169025 206.78 0.507524 215.181 0.8456C219.381 1.01459 222.889 1.18393 224.65 1.31148C225.088 1.34323 225.43 1.37322 225.649 1.40118C225.744 1.41324 225.864 1.43033 225.959 1.4595C225.983 1.46686 226.04 1.48523 226.106 1.52194C226.135 1.53774 226.193 1.57237 226.261 1.63433C230.021 1.58124 233.782 1.54297 237.542 1.52123C246.284 1.4707 263.764 1.4707 276.873 1.48333C283.428 1.48965 288.89 1.49912 291.622 1.50702C292.305 1.50899 292.817 1.51087 293.134 1.51257C293.291 1.51342 293.403 1.51424 293.462 1.51503L293.501 1.51571L293.52 1.51633L293.539 1.51736C293.549 1.51816 293.588 1.5228 293.617 1.5279C294.069 1.83581 294.181 3.36495 293.622 3.85396C293.591 3.85973 293.549 3.86482 293.538 3.86566C293.524 3.86659 293.512 3.86694 293.509 3.86704L293.508 3.86705C293.497 3.86736 293.484 3.86757 293.471 3.86773C293.261 3.87036 292.163 3.87192 289.981 3.87192C271.102 3.87192 252.246 3.96114 233.389 4.88537C196.134 6.71138 158.925 9.95344 121.812 14.8072C162.871 13.6259 203.993 13.3501 245.008 16.7354C249.31 17.0905 257.972 18.0172 263.139 19.1128C263.186 19.1226 263.266 19.1285 263.42 19.1363L263.439 19.1372C263.567 19.1437 263.742 19.1525 263.906 19.1806C264.052 19.2055 264.328 19.2638 264.571 19.4821C264.709 19.6061 264.873 19.8132 264.971 20.1375C265.071 20.4695 265.066 20.7994 265.019 21.0673C264.927 21.5836 264.751 22.0403 264.478 22.3965C264.21 22.7471 263.894 22.9418 263.586 23.0436C263.001 23.237 262.337 23.1284 261.757 22.976C261.323 22.8617 260.854 22.6976 260.416 22.5445C260.259 22.4896 260.106 22.4361 259.96 22.3869C259.373 22.1885 258.888 22.0535 258.513 22.0418C251.377 21.8176 244.246 21.4206 237.123 21.0141L235.839 20.9408C229.142 20.5582 222.452 20.1759 215.76 19.9289C184.172 18.7626 152.565 19.2071 120.987 20.9425C113.881 21.333 106.755 22.0776 99.6079 22.8244C97.9872 22.9938 96.3654 23.1632 94.7425 23.3287C85.9704 24.2231 77.1737 25 68.3989 25C67.7085 25 67.169 24.9778 66.7755 24.932C66.5803 24.9093 66.4016 24.8786 66.2499 24.8346C66.1458 24.8043 65.892 24.7286 65.6844 24.49C65.5578 24.3446 65.357 24.0283 65.3515 23.5342C65.3463 23.0723 65.5178 22.7648 65.6059 22.6345C65.7696 22.3925 65.9812 22.2638 66.0815 22.2051C66.3388 22.0546 66.7075 21.9106 67.1298 21.7701C68.8455 21.1995 72.2504 20.4343 76.2898 19.6274C78.1641 19.253 80.1839 18.8679 82.249 18.4872C61.1876 19.2554 42.0078 20.0914 21.0737 21.1117C17.0061 21.31 12.9424 21.5084 8.88089 21.7547C8.85657 21.7835 8.83533 21.8053 8.8195 21.8208C8.76496 21.8742 8.71667 21.9078 8.68755 21.9265C8.62995 21.9635 8.58103 21.9838 8.55833 21.9928C8.53108 22.0036 8.50719 22.0111 8.48997 22.0162C8.42905 22.0342 8.36182 22.0465 8.30745 22.0554C8.18793 22.0752 8.01151 22.0975 7.77564 22.1231C7.62178 22.1398 7.47449 22.0963 7.34538 22.0065C6.77775 22.0172 6.05342 22.0398 5.41142 22.0598C5.33273 22.0623 5.25528 22.0647 5.17951 22.0671C4.74696 22.0805 4.36733 22.0918 4.13274 22.0956C4.02991 22.0973 3.91808 22.0985 3.85178 22.0932C3.84048 22.0922 3.81926 22.0903 3.79394 22.0862C3.78138 22.0841 3.75983 22.0803 3.73355 22.0733C3.71564 22.0686 3.65596 22.0526 3.58408 22.0132C3.54461 21.9899 3.44735 21.9171 3.39137 21.8636C3.30531 21.7608 3.13383 21.4237 3.07371 21.1806C3.0529 20.8774 3.14983 20.3645 3.23989 20.173C3.30591 20.0714 3.42815 19.9332 3.47885 19.8898C3.56506 19.8217 3.64059 19.7916 3.65943 19.7841L3.66036 19.7837C3.69041 19.7717 3.71504 19.7645 3.7285 19.7607C3.77303 19.7483 3.81363 19.7424 3.8268 19.7405L3.82773 19.7404C3.84859 19.7374 3.87089 19.7347 3.89272 19.7322C4.20661 19.6975 5.44902 19.6132 8.27351 19.4389C12.522 19.1768 16.7714 18.9693 21.0164 18.7624C42.6796 17.7066 62.4658 16.848 84.4015 16.0577C89.5447 15.8724 94.6897 15.6882 99.8362 15.5105C100.122 15.4673 100.397 15.4262 100.659 15.3876C133.529 10.5396 166.478 6.98628 199.475 4.59147C175.896 5.30557 152.318 6.44265 128.735 7.57996C127.543 7.63742 126.352 7.69488 125.16 7.75229C87.6959 9.55732 50.2191 11.309 12.7342 11.309C9.03764 11.309 6.2589 11.2747 4.31465 11.21C3.34313 11.1776 2.57397 11.1376 2.00009 11.0897C1.45386 11.0442 1.01609 10.9874 0.756498 10.8977C0.694405 10.8763 0.57525 10.8316 0.455653 10.738C0.397999 10.6928 0.278074 10.5894 0.174323 10.3961C0.0519962 10.1681 -0.0456379 9.80932 0.0223396 9.39536C0.0803588 9.04204 0.231257 8.83109 0.304902 8.74218C0.386177 8.64406 0.464911 8.58466 0.511604 8.55265C0.606563 8.48754 0.701634 8.44719 0.767751 8.42203C1.02846 8.32282 1.45682 8.2369 1.98234 8.15437C3.06946 7.98365 4.81597 7.7934 7.12329 7.58732C16.3621 6.76214 34.8311 5.663 56.9824 4.56439C69.1207 3.96238 82.369 3.36032 95.8161 2.80343C81.5119 2.63617 67.2089 2.47712 52.9081 2.35068C52.4488 2.34662 52.0789 1.81712 52.0818 1.168ZM145.098 3.37521C117.015 4.21552 84.2442 5.56446 57.0407 6.91364C43.0016 7.60993 30.4509 8.30599 20.7958 8.9319C55.5607 8.70687 90.3245 7.0786 125.104 5.40295C126.298 5.3454 127.493 5.28779 128.687 5.23018C140.55 4.6581 152.414 4.08594 164.28 3.56759C157.886 3.50887 151.492 3.44402 145.098 3.37521ZM293.472 3.86606C293.475 3.86613 293.474 3.86612 293.47 3.86598L293.472 3.86606ZM1.15135 8.61425C1.14255 8.61121 1.14383 8.61098 1.15265 8.6147C1.15221 8.61455 1.15178 8.6144 1.15135 8.61425ZM1.19003 10.6959C1.18805 10.6969 1.18698 10.6973 1.18695 10.6973C1.18691 10.6973 1.18791 10.6968 1.19003 10.6959ZM3.99826 22.0787C3.99858 22.0787 3.99906 22.0786 3.9997 22.0785C3.99528 22.0792 3.9944 22.0793 3.99826 22.0787ZM99.9449 17.8582C94.2964 18.7131 84.1857 20.4242 76.5225 21.955C75.4826 22.1627 74.4906 22.3666 73.5627 22.5641C80.5643 22.3399 87.5869 21.7015 94.6228 20.9841C96.239 20.8193 97.8563 20.6503 99.4741 20.4812C106.623 19.7342 113.785 18.9859 120.922 18.5936C152.533 16.8564 184.175 16.4113 215.804 17.579C222.508 17.8265 229.209 18.2094 235.903 18.5918L237.19 18.6654C239.895 18.8197 242.6 18.9726 245.303 19.1151C245.169 19.1036 245.038 19.0926 244.911 19.0821C196.671 15.1005 148.272 16.1901 99.9449 17.8582ZM66.5433 22.5172C66.5437 22.5169 66.5502 22.5191 66.5615 22.5247C66.5485 22.5202 66.5429 22.5175 66.5433 22.5172ZM66.6901 24.3941C66.683 24.3998 66.6789 24.4026 66.6785 24.4026C66.6781 24.4026 66.6817 24.3997 66.6901 24.3941Z" fill="white"/>
</svg>
