<svg width="1088" height="117" viewBox="0 0 1088 117" fill="none" xmlns="http://www.w3.org/2000/svg">
<rect x="6.14771" y="0.974976" width="387" height="92" transform="rotate(3.5 6.14771 0.974976)" fill="#FBF7FF"/>
<rect x="701" y="0.974976" width="387" height="92" transform="rotate(3.5 701 0.974976)" fill="#FBF7FF"/>
<rect x="360.236" y="24.6008" width="387" height="92" transform="rotate(-3.5 360.236 24.6008)" fill="#FBF7FF"/>
<path d="M444.458 44.5013L416.063 46.238L418.456 85.3649L446.851 83.6282C456.968 83.0094 465.472 76.2056 464.659 62.9024C463.845 49.5993 454.575 43.8825 444.458 44.5013ZM442.534 75.4205L428.001 76.3093L426.64 54.0629L441.173 53.174C448.775 52.7091 454.016 54.0155 454.598 63.5178C455.179 73.02 450.136 74.9555 442.534 75.4205ZM477.161 42.5011L467.1 43.1165L469.493 82.2433L479.555 81.628L477.161 42.5011ZM506.229 65.5215L520.818 64.6292C520.775 67.6053 517.123 72.0927 507.397 72.6876C494.373 73.4841 492.077 66.2187 491.787 61.4676C491.499 56.7724 492.847 49.4525 505.927 48.6525C516.547 48.0029 519.5 52.2546 520.24 55.1829L530.469 54.5572C529.259 44.869 521.061 39.255 505.41 40.2123C489.313 41.1969 480.919 48.8916 481.712 61.8594C482.505 74.8272 491.774 81.4417 506.195 80.5596C514.523 80.0502 520.228 77.0083 523.671 72.7582L524.495 78.8793L531.929 78.4246L530.647 57.4638L505.829 58.9817L506.229 65.5215ZM543.537 38.4414L533.476 39.0567L535.869 78.1836L545.931 77.5682L543.537 38.4414ZM594.907 35.2995L546.837 38.2396L547.353 46.6798L566.357 45.5174L568.234 76.2041L578.295 75.5887L576.418 44.9021L595.423 43.7397L594.907 35.2995ZM631.403 72.3405L642.526 71.6602L619.899 33.7709L606.316 34.6016L588.531 74.9627L599.599 74.2858L603.281 65.7009L626.702 64.2685L631.403 72.3405ZM606.568 57.9819L613.59 41.6187L622.498 57.0075L606.568 57.9819ZM654.476 62.4575L652.599 31.7709L642.538 32.3862L644.931 71.5131L685.176 69.0516L684.66 60.6114L654.476 62.4575Z" fill="black"/>
<path d="M785.754 68.6417L796.878 69.322L779.036 28.9576L765.454 28.1268L742.882 66.0196L753.95 66.6965L758.651 58.6244L782.072 60.0569L785.754 68.6417ZM762.854 51.3635L771.818 35.978L778.785 52.3378L762.854 51.3635ZM819.332 56.2204L833.921 57.1127C833.516 60.0615 829.344 64.0703 819.618 63.4754C806.594 62.6788 805.201 55.1878 805.491 50.4367C805.779 45.7415 808.008 38.6403 821.088 39.4403C831.708 40.0899 834.121 44.6697 834.499 47.6664L844.728 48.292C844.708 38.5286 837.255 31.9573 821.604 31.0001C805.506 30.0155 796.237 36.63 795.444 49.5977C794.651 62.5655 803.045 70.2603 817.466 71.1423C825.794 71.6517 831.827 69.3277 835.763 65.5288L835.834 71.7047L843.268 72.1594L844.55 51.1986L819.732 49.6806L819.332 56.2204ZM890.475 43.7964L890.964 35.8034L849.601 33.2735L847.208 72.4004L888.571 74.9303L889.06 66.9372L857.758 65.0227L858.244 57.0855L889.545 59L889.99 51.7336L858.688 49.8191L859.174 41.882L890.475 43.7964ZM934.991 38.4962L933.193 67.8972L908.273 36.862L894.635 36.0279L892.241 75.1548L902.303 75.7701L904.097 46.425L928.965 77.4009L942.659 78.2384L945.052 39.1115L934.991 38.4962ZM947.25 58.8265C946.453 71.8501 953.394 79.456 970.609 80.509C986.204 81.4628 994.396 75.9606 996.096 64.6754L985.867 64.0497C984.527 70.3637 979.454 72.5782 971.126 72.0688C960.953 71.4466 956.819 67.4908 957.311 59.4418C957.8 51.4488 962.326 48.0788 972.555 48.7044C980.939 49.2172 985.652 51.9741 986.215 58.3484L996.444 58.974C996.129 47.6216 988.666 41.218 973.071 40.2642C955.855 39.2112 948.043 45.8587 947.25 58.8265ZM1014.82 69.7481L1014.04 82.604L1024.1 83.2194L1024.88 70.3634L1048.63 45.4463L1036.5 44.7045L1020.37 61.6155L1006.42 42.8652L994.295 42.1233L1014.82 69.7481Z" fill="black"/>
<path d="M87.7545 33.5917L74.1719 32.761L56.1056 59.3717L41.4171 30.7576L27.8345 29.9269L25.4414 69.0537L35.5026 69.6691L37.1435 42.8392L51.7682 70.664L59.0346 71.1084L76.9412 45.2734L75.3002 72.1032L85.3614 72.7186L87.7545 33.5917ZM130.637 75.4878L141.76 76.1681L123.919 35.8036L110.336 34.9729L87.7649 72.8656L98.8322 73.5425L103.534 65.4705L126.954 66.9029L130.637 75.4878ZM107.737 58.2095L116.701 42.8241L123.667 59.1839L107.737 58.2095ZM190.786 59.474L191.98 39.9664L181.918 39.351L180.725 58.8586C180.394 64.2805 178.498 70.5043 165.474 69.7078C152.451 68.9112 151.325 62.5586 151.66 57.0809L152.853 37.5733L142.792 36.9579L141.598 56.4655C140.764 70.104 147.742 77.095 164.958 78.148C182.118 79.1976 189.956 73.0566 190.786 59.474ZM224.571 41.9598L196.176 40.2231L193.783 79.35L222.178 81.0867C232.295 81.7055 241.565 75.9887 242.379 62.6856C243.193 49.3825 234.688 42.5786 224.571 41.9598ZM218.893 72.414L204.36 71.5251L205.721 49.2787L220.254 50.1675C227.856 50.6325 232.899 52.568 232.318 62.0702C231.737 71.5725 226.495 72.8789 218.893 72.414ZM288.087 53.8676L288.576 45.8745L247.214 43.3447L244.82 82.4715L286.183 85.0014L286.672 77.0083L255.371 75.0939L255.856 67.1567L287.158 69.0712L287.602 61.8047L256.3 59.8903L256.786 51.9531L288.087 53.8676ZM288.585 85.1483L302.447 85.9961L318.248 73.4974L332.351 87.8252L346.269 88.6764L325.443 67.766L348.662 49.5495L334.744 48.6983L319 61.2004L304.84 46.8693L290.978 46.0214L311.804 66.9318L288.585 85.1483Z" fill="black"/>
</svg>
